<svg xmlns="http://www.w3.org/2000/svg" xmlns:xlink="http://www.w3.org/1999/xlink" width="11520" zoomAndPan="magnify" viewBox="0 0 8640 2592.000001" height="3456" preserveAspectRatio="xMidYMid meet" version="1.2"><defs><clipPath id="5c0d46a2bb"><path d="M 89.640625 481.078125 L 1154 481.078125 L 1154 2077.210938 L 89.640625 2077.210938 Z M 89.640625 481.078125 "/></clipPath><clipPath id="3bbdea9c0c"><path d="M 534 481.078125 L 1648 481.078125 L 1648 2077.210938 L 534 2077.210938 Z M 534 481.078125 "/></clipPath><clipPath id="c3dd99f564"><path d="M 1057 481.078125 L 2154 481.078125 L 2154 2077.210938 L 1057 2077.210938 Z M 1057 481.078125 "/></clipPath><clipPath id="e0bb836fac"><path d="M 1551 481.078125 L 2628.910156 481.078125 L 2628.910156 2077.210938 L 1551 2077.210938 Z M 1551 481.078125 "/></clipPath><clipPath id="4414641a10"><path d="M 533 1116 L 1150 1116 L 1150 2077.210938 L 533 2077.210938 Z M 533 1116 "/></clipPath><clipPath id="7810197b49"><path d="M 1536 1133 L 2154 1133 L 2154 2077.210938 L 1536 2077.210938 Z M 1536 1133 "/></clipPath><clipPath id="7bd2f3dd31"><path d="M 1034 481.078125 L 1651 481.078125 L 1651 1409 L 1034 1409 Z M 1034 481.078125 "/></clipPath></defs><g id="5d9a3acdfe"><g style="fill:#050038;fill-opacity:1;"><g transform="translate(3162.810298, 1783.92524)"><path style="stroke:none" d="M 318.875 0 L 16.28125 -909.125 L 214.390625 -909.125 L 392.140625 -314.796875 L 591.609375 -909.125 L 708.296875 -907.765625 L 906.40625 -314.796875 L 1088.234375 -909.125 L 1286.34375 -909.125 L 976.96875 0 L 858.921875 0 L 648.59375 -605.171875 L 436.921875 0 Z M 318.875 0 "/></g></g><g style="fill:#050038;fill-opacity:1;"><g transform="translate(4450.160183, 1783.92524)"><path style="stroke:none" d="M 538.6875 20.359375 C 472.65625 20.359375 410.914062 8.597656 353.46875 -14.921875 C 296.03125 -38.441406 245.597656 -71.234375 202.171875 -113.296875 C 158.753906 -155.359375 124.609375 -205.5625 99.734375 -263.90625 C 74.859375 -322.257812 62.421875 -385.8125 62.421875 -454.5625 C 62.421875 -523.3125 74.859375 -586.859375 99.734375 -645.203125 C 124.609375 -703.554688 158.753906 -753.765625 202.171875 -795.828125 C 245.597656 -837.890625 296.03125 -870.679688 353.46875 -894.203125 C 410.914062 -917.722656 472.65625 -929.484375 538.6875 -929.484375 C 604.726562 -929.484375 666.46875 -917.722656 723.90625 -894.203125 C 781.351562 -870.679688 831.785156 -837.890625 875.203125 -795.828125 C 918.617188 -753.765625 952.765625 -703.554688 977.640625 -645.203125 C 1002.523438 -586.859375 1014.96875 -523.3125 1014.96875 -454.5625 C 1014.96875 -385.8125 1002.523438 -322.257812 977.640625 -263.90625 C 952.765625 -205.5625 918.617188 -155.359375 875.203125 -113.296875 C 831.785156 -71.234375 781.351562 -38.441406 723.90625 -14.921875 C 666.46875 8.597656 604.726562 20.359375 538.6875 20.359375 Z M 538.6875 -146.546875 C 595.675781 -146.546875 646.5625 -160.113281 691.34375 -187.25 C 736.125 -214.382812 771.40625 -251.019531 797.1875 -297.15625 C 822.96875 -343.289062 835.859375 -395.757812 835.859375 -454.5625 C 835.859375 -513.363281 822.96875 -566.054688 797.1875 -612.640625 C 771.40625 -659.222656 736.125 -695.859375 691.34375 -722.546875 C 646.5625 -749.234375 595.675781 -762.578125 538.6875 -762.578125 C 481.695312 -762.578125 430.8125 -749.234375 386.03125 -722.546875 C 341.257812 -695.859375 305.984375 -659.222656 280.203125 -612.640625 C 254.421875 -566.054688 241.53125 -513.363281 241.53125 -454.5625 C 241.53125 -395.757812 254.421875 -343.289062 280.203125 -297.15625 C 305.984375 -251.019531 341.257812 -214.382812 386.03125 -187.25 C 430.8125 -160.113281 481.695312 -146.546875 538.6875 -146.546875 Z M 538.6875 -146.546875 "/></g></g><g style="fill:#050038;fill-opacity:1;"><g transform="translate(5512.262799, 1783.92524)"><path style="stroke:none" d="M 132.96875 0 L 132.96875 -909.125 L 497.984375 -909.125 C 539.597656 -909.125 580.53125 -903.242188 620.78125 -891.484375 C 661.039062 -879.722656 697.222656 -862.082031 729.328125 -838.5625 C 761.441406 -815.039062 787.222656 -784.960938 806.671875 -748.328125 C 826.128906 -711.691406 835.859375 -668.5 835.859375 -618.75 C 835.859375 -562.664062 820.703125 -515.398438 790.390625 -476.953125 C 760.085938 -438.503906 721.414062 -409.78125 674.375 -390.78125 C 628.238281 -371.789062 578.941406 -361.84375 526.484375 -360.9375 L 875.203125 0 L 639.09375 0 L 308.015625 -373.140625 L 308.015625 0 Z M 308.015625 -503.40625 C 328.816406 -497.070312 351.429688 -491.644531 375.859375 -487.125 C 407.523438 -481.695312 439.1875 -478.984375 470.84375 -478.984375 C 528.738281 -478.984375 574.191406 -491.644531 607.203125 -516.96875 C 640.222656 -542.300781 656.734375 -576.226562 656.734375 -618.75 C 656.734375 -663.976562 639.09375 -698.125 603.8125 -721.1875 C 568.539062 -744.257812 525.125 -755.796875 473.5625 -755.796875 L 308.015625 -755.796875 Z M 308.015625 -503.40625 "/></g></g><g style="fill:#050038;fill-opacity:1;"><g transform="translate(6396.610299, 1783.92524)"><path style="stroke:none" d="M 329.734375 0 L 329.734375 -755.796875 L 43.421875 -755.796875 L 43.421875 -909.125 L 792.4375 -909.125 L 792.4375 -755.796875 L 504.765625 -755.796875 L 504.765625 0 Z M 329.734375 0 "/></g></g><g style="fill:#050038;fill-opacity:1;"><g transform="translate(7215.825945, 1783.92524)"><path style="stroke:none" d="M 749.015625 0 L 749.015625 -377.21875 L 308.015625 -377.21875 L 308.015625 0 L 132.96875 0 L 132.96875 -909.125 L 308.015625 -909.125 L 308.015625 -535.984375 L 749.015625 -535.984375 L 749.015625 -909.125 L 924.046875 -909.125 L 924.046875 0 Z M 749.015625 0 "/></g></g><path style=" stroke:none;fill-rule:nonzero;fill:#b896ff;fill-opacity:1;" d="M 244.246094 517.472656 L 264.941406 508.03125 C 268.84375 506.253906 272.789062 504.570312 276.773438 502.980469 C 280.761719 501.394531 284.78125 499.90625 288.839844 498.515625 C 292.898438 497.125 296.992188 495.835938 301.113281 494.648438 C 305.234375 493.460938 309.382812 492.371094 313.558594 491.386719 C 317.734375 490.402344 321.933594 489.519531 326.152344 488.742188 C 330.371094 487.960938 334.605469 487.285156 338.855469 486.714844 C 343.109375 486.144531 347.371094 485.675781 351.648438 485.316406 C 355.921875 484.953125 360.203125 484.695312 364.492188 484.542969 C 368.777344 484.390625 373.066406 484.34375 377.359375 484.402344 C 381.648438 484.460938 385.933594 484.625 390.214844 484.894531 C 394.496094 485.164062 398.769531 485.539062 403.03125 486.015625 C 407.296875 486.496094 411.546875 487.078125 415.78125 487.765625 C 420.015625 488.453125 424.230469 489.242188 428.425781 490.136719 C 432.621094 491.03125 436.792969 492.027344 440.941406 493.125 C 445.089844 494.226562 449.207031 495.425781 453.292969 496.726562 C 457.382812 498.027344 461.4375 499.429688 465.453125 500.929688 C 469.472656 502.429688 473.453125 504.027344 477.394531 505.722656 C 481.335938 507.414062 485.234375 509.207031 489.085938 511.09375 C 492.9375 512.980469 496.742188 514.960938 500.5 517.03125 C 504.253906 519.105469 507.957031 521.269531 511.605469 523.527344 C 515.257812 525.78125 518.847656 528.125 522.382812 530.554688 C 525.917969 532.984375 529.390625 535.503906 532.800781 538.105469 C 536.210938 540.707031 539.554688 543.390625 542.835938 546.15625 C 546.113281 548.921875 549.324219 551.765625 552.460938 554.691406 C 555.601562 557.613281 558.667969 560.613281 561.660156 563.6875 C 564.648438 566.761719 567.566406 569.90625 570.402344 573.121094 C 573.238281 576.339844 575.996094 579.625 578.671875 582.976562 C 581.347656 586.328125 583.941406 589.746094 586.449219 593.222656 C 588.957031 596.703125 591.378906 600.242188 593.714844 603.839844 C 596.046875 607.4375 598.292969 611.09375 600.449219 614.800781 C 602.605469 618.507812 604.667969 622.269531 606.636719 626.078125 C 608.609375 629.886719 610.484375 633.742188 612.265625 637.644531 L 1095.1875 1695.542969 C 1096.96875 1699.441406 1098.65625 1703.386719 1100.242188 1707.371094 C 1101.828125 1711.355469 1103.320312 1715.375 1104.707031 1719.433594 C 1106.097656 1723.492188 1107.386719 1727.582031 1108.578125 1731.703125 C 1109.765625 1735.824219 1110.855469 1739.96875 1111.839844 1744.144531 C 1112.824219 1748.320312 1113.707031 1752.515625 1114.488281 1756.730469 C 1115.265625 1760.949219 1115.941406 1765.183594 1116.511719 1769.433594 C 1117.085938 1773.683594 1117.550781 1777.949219 1117.914062 1782.222656 C 1118.277344 1786.496094 1118.53125 1790.773438 1118.683594 1795.0625 C 1118.835938 1799.347656 1118.882812 1803.632812 1118.824219 1807.921875 C 1118.765625 1812.210938 1118.601562 1816.496094 1118.332031 1820.777344 C 1118.066406 1825.058594 1117.691406 1829.328125 1117.210938 1833.589844 C 1116.734375 1837.851562 1116.148438 1842.101562 1115.460938 1846.335938 C 1114.773438 1850.566406 1113.984375 1854.78125 1113.089844 1858.976562 C 1112.195312 1863.171875 1111.199219 1867.34375 1110.097656 1871.488281 C 1109 1875.632812 1107.800781 1879.75 1106.5 1883.835938 C 1105.199219 1887.925781 1103.796875 1891.976562 1102.296875 1895.996094 C 1100.796875 1900.011719 1099.199219 1903.992188 1097.5 1907.929688 C 1095.804688 1911.871094 1094.015625 1915.765625 1092.128906 1919.617188 C 1090.242188 1923.46875 1088.261719 1927.273438 1086.1875 1931.027344 C 1084.113281 1934.78125 1081.949219 1938.484375 1079.691406 1942.132812 C 1077.4375 1945.78125 1075.09375 1949.371094 1072.660156 1952.90625 C 1070.226562 1956.4375 1067.710938 1959.910156 1065.109375 1963.320312 C 1062.503906 1966.730469 1059.820312 1970.074219 1057.054688 1973.351562 C 1054.289062 1976.628906 1051.441406 1979.835938 1048.519531 1982.976562 C 1045.59375 1986.113281 1042.59375 1989.179688 1039.519531 1992.167969 C 1036.445312 1995.160156 1033.296875 1998.074219 1030.082031 2000.910156 C 1026.863281 2003.746094 1023.578125 2006.503906 1020.222656 2009.179688 C 1016.871094 2011.855469 1013.453125 2014.445312 1009.972656 2016.953125 C 1006.492188 2019.460938 1002.953125 2021.882812 999.351562 2024.214844 C 995.753906 2026.550781 992.097656 2028.792969 988.390625 2030.949219 C 984.679688 2033.101562 980.917969 2035.164062 977.109375 2037.136719 C 973.296875 2039.105469 969.441406 2040.980469 965.539062 2042.761719 L 944.84375 2052.203125 C 940.9375 2053.984375 936.996094 2055.667969 933.007812 2057.253906 C 929.023438 2058.839844 925 2060.328125 920.941406 2061.71875 C 916.882812 2063.109375 912.792969 2064.398438 908.671875 2065.585938 C 904.546875 2066.773438 900.398438 2067.863281 896.222656 2068.847656 C 892.046875 2069.832031 887.851562 2070.714844 883.632812 2071.492188 C 879.414062 2072.273438 875.179688 2072.949219 870.925781 2073.519531 C 866.675781 2074.089844 862.410156 2074.558594 858.136719 2074.921875 C 853.859375 2075.28125 849.578125 2075.539062 845.292969 2075.691406 C 841.003906 2075.84375 836.714844 2075.890625 832.425781 2075.832031 C 828.136719 2075.773438 823.851562 2075.609375 819.570312 2075.339844 C 815.285156 2075.070312 811.015625 2074.695312 806.75 2074.21875 C 802.488281 2073.738281 798.238281 2073.15625 794.003906 2072.46875 C 789.769531 2071.78125 785.554688 2070.992188 781.355469 2070.097656 C 777.160156 2069.203125 772.988281 2068.207031 768.84375 2067.109375 C 764.695312 2066.007812 760.578125 2064.808594 756.488281 2063.507812 C 752.402344 2062.207031 748.347656 2060.808594 744.328125 2059.308594 C 740.308594 2057.808594 736.328125 2056.210938 732.386719 2054.515625 C 728.449219 2052.820312 724.550781 2051.027344 720.699219 2049.140625 C 716.84375 2047.253906 713.039062 2045.273438 709.285156 2043.203125 C 705.527344 2041.128906 701.828125 2038.964844 698.175781 2036.710938 C 694.527344 2034.453125 690.9375 2032.113281 687.402344 2029.679688 C 683.867188 2027.25 680.394531 2024.730469 676.984375 2022.128906 C 673.574219 2019.527344 670.226562 2016.84375 666.949219 2014.078125 C 663.671875 2011.3125 660.460938 2008.46875 657.320312 2005.546875 C 654.183594 2002.621094 651.117188 1999.625 648.125 1996.550781 C 645.132812 1993.476562 642.21875 1990.328125 639.382812 1987.113281 C 636.542969 1983.894531 633.785156 1980.609375 631.109375 1977.257812 C 628.433594 1973.90625 625.84375 1970.492188 623.335938 1967.011719 C 620.824219 1963.53125 618.402344 1959.992188 616.070312 1956.394531 C 613.734375 1952.796875 611.488281 1949.144531 609.335938 1945.433594 C 607.179688 1941.726562 605.117188 1937.964844 603.144531 1934.15625 C 601.175781 1930.347656 599.300781 1926.492188 597.519531 1922.589844 L 114.59375 864.695312 C 112.8125 860.792969 111.128906 856.847656 109.542969 852.863281 C 107.953125 848.878906 106.464844 844.859375 105.074219 840.800781 C 103.683594 836.742188 102.394531 832.65625 101.207031 828.535156 C 100.015625 824.414062 98.929688 820.265625 97.945312 816.089844 C 96.957031 811.917969 96.078125 807.71875 95.296875 803.503906 C 94.515625 799.285156 93.84375 795.050781 93.269531 790.800781 C 92.699219 786.550781 92.230469 782.289062 91.871094 778.015625 C 91.507812 773.742188 91.25 769.460938 91.097656 765.175781 C 90.945312 760.886719 90.898438 756.601562 90.957031 752.3125 C 91.015625 748.023438 91.179688 743.738281 91.449219 739.457031 C 91.71875 735.175781 92.09375 730.90625 92.570312 726.644531 C 93.050781 722.382812 93.632812 718.132812 94.320312 713.902344 C 95.007812 709.667969 95.800781 705.453125 96.695312 701.257812 C 97.589844 697.0625 98.585938 692.894531 99.683594 688.746094 C 100.785156 684.601562 101.984375 680.484375 103.285156 676.398438 C 104.585938 672.3125 105.988281 668.257812 107.488281 664.242188 C 108.988281 660.222656 110.585938 656.242188 112.28125 652.304688 C 113.976562 648.363281 115.769531 644.46875 117.65625 640.617188 C 119.542969 636.765625 121.523438 632.960938 123.597656 629.207031 C 125.671875 625.453125 127.835938 621.75 130.09375 618.101562 C 132.347656 614.453125 134.691406 610.863281 137.125 607.332031 C 139.554688 603.796875 142.074219 600.324219 144.675781 596.914062 C 147.277344 593.507812 149.960938 590.164062 152.730469 586.882812 C 155.496094 583.605469 158.339844 580.398438 161.265625 577.261719 C 164.191406 574.121094 167.191406 571.058594 170.265625 568.066406 C 173.339844 565.074219 176.484375 562.160156 179.703125 559.324219 C 182.921875 556.488281 186.207031 553.730469 189.558594 551.058594 C 192.914062 548.382812 196.332031 545.789062 199.8125 543.28125 C 203.292969 540.773438 206.832031 538.355469 210.429688 536.019531 C 214.03125 533.6875 217.683594 531.441406 221.394531 529.289062 C 225.105469 527.132812 228.863281 525.070312 232.675781 523.101562 C 236.488281 521.128906 240.34375 519.253906 244.246094 517.472656 Z M 244.246094 517.472656 "/><g clip-rule="nonzero" clip-path="url(#5c0d46a2bb)"><path style="fill:none;stroke-width:1;stroke-linecap:butt;stroke-linejoin:miter;stroke:#b896ff;stroke-opacity:1;stroke-miterlimit:10;" d="M 204.230188 -18.050753 L 213.450236 -18.050658 C 215.188288 -18.049554 216.926404 -18.006641 218.663144 -17.922577 C 220.400666 -17.836415 222.133273 -17.708976 223.863846 -17.538945 C 225.594419 -17.368913 227.32086 -17.155506 229.040288 -16.900039 C 230.759716 -16.644571 232.472788 -16.348483 234.178191 -16.008893 C 235.883593 -15.669304 237.580542 -15.288311 239.266941 -14.86513 C 240.953997 -14.443391 242.629061 -13.980122 244.292135 -13.475323 C 245.956648 -12.969867 247.606948 -12.425636 249.244598 -11.838435 C 250.881466 -11.253332 252.503462 -10.628014 254.110585 -9.962481 C 255.716269 -9.297605 257.30564 -8.593171 258.878699 -7.84918 C 260.450318 -7.105845 262.002743 -6.324268 263.535976 -5.504447 C 265.069209 -4.684627 266.581809 -3.82722 268.072992 -2.934326 C 269.564958 -2.039334 271.034068 -1.109511 272.479664 -0.143417 C 273.92526 0.822678 275.34656 1.822945 276.742905 2.858826 C 278.13925 3.894708 279.509858 4.964105 280.854729 6.067018 C 282.198942 7.171372 283.515195 8.306487 284.802831 9.473802 C 286.091907 10.641775 287.350924 11.841292 288.579101 13.070255 C 289.808719 14.299876 291.007495 15.558942 292.17543 16.847454 C 293.344023 18.134525 294.479678 19.451826 295.582268 20.795817 C 296.684858 22.139808 297.754385 23.51049 298.791504 24.906422 C 299.826526 26.303137 300.827701 27.724444 301.792932 29.171128 C 302.76026 30.617028 303.68942 32.085548 304.583951 33.576563 C 305.478482 35.067578 306.334845 36.581214 307.154355 38.114588 C 307.973865 39.647963 308.755082 41.200419 309.499446 42.772614 C 310.242369 44.344152 310.947657 45.933331 311.611772 47.540278 C 312.277984 49.14644 312.90368 50.768929 313.489516 52.406304 C 314.073913 54.043021 314.620549 55.693841 315.125102 57.35679 C 315.628999 59.021181 316.092911 60.696918 316.515398 62.383345 C 316.937886 64.069771 317.318949 65.766887 317.658462 67.471154 C 317.997318 69.176862 318.294624 70.88972 318.55038 72.609729 C 318.804696 74.32908 319.017463 76.055583 319.188554 77.785697 C 319.359645 79.515811 319.486963 81.25032 319.571823 82.986343 C 319.658123 84.723023 319.700526 86.46056 319.70047 88.19961 L 319.699126 559.650468 C 319.699728 561.388078 319.657872 563.127201 319.571992 564.863642 C 319.486112 566.600084 319.359747 568.333716 319.187918 570.064009 C 319.017529 571.794959 318.804432 573.520346 318.550066 575.240825 C 318.294261 576.960648 317.998501 578.672682 317.658593 580.378495 C 317.318685 582.084308 316.938041 583.780235 316.516661 585.466276 C 316.093183 587.1531 315.629627 588.828597 315.124551 590.49211 C 314.620916 592.15628 314.074322 593.807809 313.488964 595.44513 C 312.903606 597.08245 312.277261 598.702806 311.611496 600.310395 C 310.946387 601.916543 310.24239 603.504944 309.498847 605.077038 C 308.755303 606.649132 307.973529 608.202038 307.153522 609.735756 C 306.334957 611.270132 305.478034 612.78178 304.583538 614.2728 C 303.690481 615.764477 302.759069 617.233427 301.792837 618.679525 C 300.827263 620.124181 299.826871 621.545984 298.790877 622.942837 C 297.754883 624.339689 296.685386 625.710807 295.581603 627.054092 C 294.479259 628.398035 293.34407 629.714802 292.176692 631.002953 C 291.008657 632.292545 289.809748 633.550639 288.580091 634.780775 C 287.351091 636.00947 286.092001 637.208765 284.802694 638.375122 C 283.514171 639.543577 282.19897 640.678968 280.854992 641.782077 C 279.511015 642.885187 278.140361 643.955232 276.743685 644.990772 C 275.34701 646.026312 273.925755 647.028004 272.479137 647.99375 C 271.033959 648.960153 269.565516 649.889827 268.073151 650.784212 C 266.581443 651.677156 265.069351 652.534686 263.536091 653.354702 C 262.001392 654.174062 260.449063 654.955782 258.877665 655.699206 C 257.306267 656.44263 255.716457 657.146317 254.110458 657.813022 C 252.503677 658.477629 250.881364 659.103813 249.244835 659.688694 C 247.607649 660.275015 245.956247 660.820032 244.293509 661.32506 C 242.62933 661.829431 240.953816 662.293812 239.266184 662.716105 C 237.579992 663.139056 235.88378 663.519136 234.17833 663.858444 C 232.472879 664.197751 230.760289 664.495502 229.039777 664.749598 C 227.320047 665.005793 225.594492 665.21755 223.864678 665.389065 C 222.134081 665.558482 220.399883 665.686216 218.663523 665.772926 C 216.92638 665.857537 215.189174 665.90034 213.450464 665.900676 L 204.230416 665.900581 C 202.490266 665.90026 200.75359 665.858005 199.016068 665.771843 C 197.279986 665.686338 195.545939 665.558242 193.815366 665.38821 C 192.084793 665.218179 190.359792 665.005429 188.640364 664.749962 C 186.919496 664.493837 185.206423 664.197749 183.501021 663.858159 C 181.795618 663.51857 180.100109 663.138234 178.413711 662.715053 C 176.726655 662.293314 175.05159 661.830045 173.387077 661.324589 C 171.724003 660.81979 170.072264 660.274902 168.435396 659.689799 C 166.797746 659.102598 165.17575 658.47728 163.570066 657.812404 C 161.962943 657.146871 160.373571 656.442437 158.801953 655.699103 C 157.230334 654.955769 155.677908 654.174191 154.144676 653.354371 C 152.610002 652.533893 151.098843 651.677143 149.606219 650.783592 C 148.115693 649.889257 146.646584 648.959434 145.200988 647.99334 C 143.755392 647.027245 142.334092 646.026978 140.936307 644.990439 C 139.539962 643.954558 138.169354 642.885161 136.825923 641.782905 C 135.48171 640.678551 134.165457 639.543437 132.876381 638.375463 C 131.588745 637.208148 130.32907 636.010071 129.099453 634.780451 C 127.869835 633.550831 126.671059 632.291765 125.503123 631.003253 C 124.336628 629.715398 123.200974 628.398097 122.098384 627.054106 C 120.994353 625.709457 119.924827 624.338776 118.889147 622.943501 C 117.852685 621.546129 116.85295 620.125479 115.885622 618.679579 C 114.920392 617.232895 113.990574 615.765816 113.096701 614.27336 C 112.20217 612.782345 111.345807 611.268709 110.526297 609.735335 C 109.706787 608.20196 108.92413 606.648847 108.181206 605.077309 C 107.438282 603.505771 106.732994 601.916592 106.066782 600.310429 C 105.402668 598.703483 104.776315 597.082435 104.190478 595.44506 C 103.604641 593.807685 103.060103 592.156082 102.555549 590.493133 C 102.050213 588.828085 101.586301 587.152348 101.163813 585.465921 C 100.741326 583.779494 100.361045 582.084476 100.022189 580.378769 C 99.681893 578.672404 99.384587 576.959546 99.130271 575.240194 C 98.874515 573.520185 98.661091 571.795124 98.492098 570.064227 C 98.321007 568.334113 98.193689 566.599603 98.107389 564.862923 C 98.022528 563.1269 97.980126 561.389363 97.980182 559.650313 L 97.979428 88.200238 C 97.979484 86.461188 98.02278 84.722722 98.10866 82.986281 C 98.193099 81.249182 98.320905 79.516207 98.491293 77.785257 C 98.661682 76.054307 98.874122 74.330361 99.129928 72.610539 C 99.384293 70.890059 99.68215 69.177241 100.022058 67.471428 C 100.359869 65.766398 100.742611 64.069688 101.163991 62.383647 C 101.586028 60.696166 102.051025 59.021326 102.55466 57.357156 C 103.059736 55.693643 103.604232 54.042897 104.191031 52.406234 C 104.776388 50.768914 105.40195 49.14646 106.067058 47.540312 C 106.732824 45.932723 107.436821 44.344322 108.180365 42.772228 C 108.923908 41.200134 109.705683 39.647227 110.525689 38.113509 C 111.345695 36.579791 112.202618 35.068143 113.095674 33.576466 C 113.99017 32.085446 114.920143 30.615838 115.885717 29.171182 C 116.851948 27.725085 117.853781 26.303939 118.889775 24.907086 C 119.925768 23.510234 120.994608 22.140557 122.097609 20.795174 C 123.201393 19.451889 124.336582 18.135121 125.50396 16.84697 C 126.671338 15.558819 127.870904 14.299284 129.099904 13.070589 C 130.329561 11.840453 131.588651 10.641158 132.876517 9.474144 C 134.165041 8.305689 135.481682 7.170955 136.825659 6.067846 C 138.169636 4.964736 139.540291 3.894691 140.936966 2.859151 C 142.333642 1.823611 143.754897 0.821919 145.201515 -0.143827 C 146.646693 -1.11023 148.115136 -2.039904 149.606843 -2.932848 C 151.097768 -3.82789 152.611301 -4.684763 154.14456 -5.504779 C 155.677162 -6.323355 157.229491 -7.105075 158.802987 -7.849283 C 160.374385 -8.592707 161.962755 -9.297051 163.569536 -9.961658 C 165.176975 -10.627706 166.79863 -11.252449 168.435816 -11.838771 C 170.073003 -12.425092 171.722965 -12.970766 173.387143 -13.475137 C 175.051322 -13.979508 176.726836 -14.443889 178.41237 -14.865399 C 180.100002 -15.287693 181.796872 -15.669213 183.502322 -16.008521 C 185.207772 -16.347828 186.919705 -16.644138 188.639435 -16.900332 C 190.359947 -17.154429 192.084719 -17.368284 193.815316 -17.537701 C 195.54657 -17.708559 197.279329 -17.83695 199.016471 -17.921562 C 200.754271 -18.007614 202.491478 -18.050417 204.230188 -18.050753 Z M 204.230188 -18.050753 " transform="matrix(2.244589,-1.024032,1.024338,2.243918,-195.676586,767.115249)"/></g><path style=" stroke:none;fill-rule:nonzero;fill:#ff6fbc;fill-opacity:1;" d="M 1441.679688 508.183594 L 1462.238281 517.921875 C 1466.113281 519.757812 1469.945312 521.6875 1473.726562 523.710938 C 1477.507812 525.734375 1481.238281 527.851562 1484.917969 530.058594 C 1488.597656 532.265625 1492.21875 534.5625 1495.785156 536.945312 C 1499.347656 539.332031 1502.855469 541.804688 1506.296875 544.359375 C 1509.742188 546.917969 1513.121094 549.558594 1516.4375 552.28125 C 1519.75 555.003906 1522.996094 557.808594 1526.175781 560.6875 C 1529.351562 563.570312 1532.457031 566.53125 1535.488281 569.566406 C 1538.519531 572.597656 1541.472656 575.707031 1544.351562 578.886719 C 1547.230469 582.066406 1550.03125 585.316406 1552.75 588.632812 C 1555.46875 591.949219 1558.105469 595.332031 1560.660156 598.777344 C 1563.214844 602.222656 1565.679688 605.730469 1568.0625 609.300781 C 1570.445312 612.867188 1572.734375 616.492188 1574.9375 620.171875 C 1577.140625 623.851562 1579.253906 627.582031 1581.273438 631.367188 C 1583.292969 635.152344 1585.21875 638.980469 1587.050781 642.859375 C 1588.882812 646.738281 1590.617188 650.660156 1592.257812 654.625 C 1593.898438 658.585938 1595.4375 662.589844 1596.878906 666.628906 C 1598.324219 670.667969 1599.667969 674.738281 1600.910156 678.84375 C 1602.152344 682.949219 1603.292969 687.082031 1604.332031 691.242188 C 1605.371094 695.40625 1606.308594 699.589844 1607.144531 703.796875 C 1607.976562 708.003906 1608.707031 712.226562 1609.335938 716.472656 C 1609.960938 720.714844 1610.484375 724.96875 1610.902344 729.238281 C 1611.320312 733.507812 1611.632812 737.78125 1611.839844 742.066406 C 1612.046875 746.351562 1612.148438 750.636719 1612.148438 754.925781 C 1612.144531 759.214844 1612.035156 763.5 1611.824219 767.785156 C 1611.609375 772.070312 1611.292969 776.34375 1610.867188 780.613281 C 1610.445312 784.878906 1609.917969 789.136719 1609.285156 793.378906 C 1608.652344 797.621094 1607.917969 801.84375 1607.078125 806.050781 C 1606.238281 810.257812 1605.292969 814.4375 1604.25 818.597656 C 1603.203125 822.757812 1602.058594 826.890625 1600.808594 830.992188 C 1599.5625 835.097656 1598.214844 839.167969 1596.765625 843.203125 C 1595.316406 847.242188 1593.769531 851.242188 1592.125 855.203125 C 1590.480469 859.164062 1588.742188 863.082031 1586.90625 866.960938 L 1088.886719 1917.835938 C 1087.050781 1921.710938 1085.117188 1925.542969 1083.09375 1929.324219 C 1081.066406 1933.105469 1078.953125 1936.832031 1076.742188 1940.511719 C 1074.535156 1944.1875 1072.238281 1947.808594 1069.851562 1951.371094 C 1067.46875 1954.9375 1064.996094 1958.441406 1062.4375 1961.886719 C 1059.878906 1965.328125 1057.238281 1968.707031 1054.515625 1972.019531 C 1051.789062 1975.332031 1048.988281 1978.578125 1046.105469 1981.753906 C 1043.21875 1984.929688 1040.261719 1988.035156 1037.226562 1991.066406 C 1034.191406 1994.09375 1031.082031 1997.050781 1027.902344 1999.929688 C 1024.71875 2002.804688 1021.46875 2005.605469 1018.152344 2008.324219 C 1014.835938 2011.042969 1011.453125 2013.679688 1008.003906 2016.230469 C 1004.554688 2018.785156 1001.046875 2021.25 997.480469 2023.628906 C 993.910156 2026.011719 990.285156 2028.300781 986.605469 2030.503906 C 982.921875 2032.707031 979.191406 2034.816406 975.40625 2036.835938 C 971.621094 2038.855469 967.789062 2040.78125 963.90625 2042.613281 C 960.027344 2044.445312 956.105469 2046.179688 952.140625 2047.820312 C 948.175781 2049.457031 944.175781 2050.996094 940.132812 2052.441406 C 936.09375 2053.882812 932.019531 2055.226562 927.914062 2056.46875 C 923.808594 2057.710938 919.671875 2058.851562 915.511719 2059.890625 C 911.347656 2060.929688 907.164062 2061.867188 902.953125 2062.699219 C 898.746094 2063.535156 894.519531 2064.265625 890.277344 2064.890625 C 886.03125 2065.515625 881.773438 2066.039062 877.503906 2066.457031 C 873.234375 2066.875 868.957031 2067.1875 864.671875 2067.394531 C 860.386719 2067.601562 856.097656 2067.703125 851.808594 2067.703125 C 847.519531 2067.699219 843.230469 2067.589844 838.945312 2067.378906 C 834.660156 2067.164062 830.382812 2066.847656 826.113281 2066.421875 C 821.84375 2066 817.589844 2065.472656 813.34375 2064.839844 C 809.101562 2064.207031 804.875 2063.472656 800.667969 2062.632812 C 796.460938 2061.792969 792.277344 2060.851562 788.117188 2059.804688 C 783.957031 2058.761719 779.824219 2057.617188 775.71875 2056.367188 C 771.613281 2055.121094 767.542969 2053.773438 763.503906 2052.324219 C 759.464844 2050.878906 755.464844 2049.332031 751.503906 2047.6875 C 747.539062 2046.042969 743.621094 2044.304688 739.742188 2042.46875 L 719.183594 2032.730469 C 715.308594 2030.894531 711.476562 2028.964844 707.695312 2026.941406 C 703.914062 2024.914062 700.183594 2022.800781 696.503906 2020.59375 C 692.824219 2018.382812 689.203125 2016.089844 685.636719 2013.703125 C 682.074219 2011.316406 678.566406 2008.847656 675.125 2006.289062 C 671.679688 2003.734375 668.300781 2001.09375 664.984375 1998.371094 C 661.671875 1995.644531 658.425781 1992.84375 655.246094 1989.960938 C 652.070312 1987.078125 648.964844 1984.121094 645.933594 1981.085938 C 642.902344 1978.050781 639.949219 1974.945312 637.070312 1971.765625 C 634.1875 1968.582031 631.390625 1965.335938 628.671875 1962.019531 C 625.949219 1958.699219 623.3125 1955.320312 620.761719 1951.871094 C 618.207031 1948.425781 615.742188 1944.917969 613.359375 1941.351562 C 610.976562 1937.785156 608.6875 1934.160156 606.484375 1930.480469 C 604.277344 1926.796875 602.167969 1923.066406 600.148438 1919.28125 C 598.128906 1915.5 596.203125 1911.667969 594.371094 1907.789062 C 592.539062 1903.910156 590.804688 1899.992188 589.164062 1896.027344 C 587.523438 1892.0625 585.984375 1888.0625 584.539062 1884.023438 C 583.097656 1879.984375 581.753906 1875.910156 580.511719 1871.804688 C 579.269531 1867.703125 578.128906 1863.566406 577.089844 1859.40625 C 576.050781 1855.246094 575.113281 1851.0625 574.277344 1846.855469 C 573.445312 1842.648438 572.714844 1838.421875 572.085938 1834.179688 C 571.460938 1829.9375 570.9375 1825.679688 570.519531 1821.410156 C 570.101562 1817.144531 569.789062 1812.867188 569.582031 1808.582031 C 569.375 1804.300781 569.273438 1800.011719 569.273438 1795.722656 C 569.277344 1791.433594 569.386719 1787.148438 569.597656 1782.863281 C 569.8125 1778.582031 570.128906 1774.304688 570.554688 1770.039062 C 570.976562 1765.769531 571.503906 1761.515625 572.136719 1757.273438 C 572.769531 1753.03125 573.503906 1748.804688 574.34375 1744.601562 C 575.183594 1740.394531 576.128906 1736.210938 577.171875 1732.050781 C 578.21875 1727.890625 579.363281 1723.761719 580.613281 1719.65625 C 581.859375 1715.554688 583.207031 1711.484375 584.65625 1707.445312 C 586.105469 1703.410156 587.652344 1699.410156 589.296875 1695.449219 C 590.9375 1691.484375 592.679688 1687.566406 594.515625 1683.691406 L 1092.535156 632.8125 C 1094.371094 628.9375 1096.304688 625.109375 1098.328125 621.328125 C 1100.351562 617.546875 1102.46875 613.816406 1104.679688 610.140625 C 1106.886719 606.464844 1109.183594 602.84375 1111.570312 599.277344 C 1113.953125 595.710938 1116.425781 592.207031 1118.984375 588.765625 C 1121.542969 585.324219 1124.183594 581.945312 1126.90625 578.628906 C 1129.632812 575.316406 1132.433594 572.070312 1135.316406 568.894531 C 1138.199219 565.71875 1141.160156 562.617188 1144.195312 559.585938 C 1147.230469 556.554688 1150.339844 553.601562 1153.519531 550.722656 C 1156.703125 547.84375 1159.949219 545.046875 1163.269531 542.328125 C 1166.585938 539.609375 1169.96875 536.972656 1173.417969 534.417969 C 1176.867188 531.867188 1180.375 529.398438 1183.941406 527.019531 C 1187.511719 524.640625 1191.136719 522.347656 1194.816406 520.144531 C 1198.5 517.941406 1202.230469 515.832031 1206.015625 513.8125 C 1209.800781 511.792969 1213.632812 509.867188 1217.515625 508.035156 C 1221.394531 506.207031 1225.316406 504.46875 1229.28125 502.832031 C 1233.246094 501.191406 1237.246094 499.652344 1241.289062 498.210938 C 1245.328125 496.769531 1249.402344 495.425781 1253.507812 494.183594 C 1257.613281 492.941406 1261.75 491.800781 1265.910156 490.761719 C 1270.074219 489.722656 1274.257812 488.785156 1278.46875 487.949219 C 1282.675781 487.117188 1286.902344 486.386719 1291.144531 485.761719 C 1295.390625 485.132812 1299.648438 484.609375 1303.917969 484.195312 C 1308.1875 483.777344 1312.464844 483.464844 1316.75 483.253906 C 1321.035156 483.046875 1325.324219 482.945312 1329.613281 482.949219 C 1333.902344 482.953125 1338.191406 483.058594 1342.476562 483.273438 C 1346.761719 483.484375 1351.039062 483.804688 1355.308594 484.226562 C 1359.578125 484.652344 1363.832031 485.179688 1368.074219 485.808594 C 1372.320312 486.441406 1376.542969 487.179688 1380.753906 488.015625 C 1384.960938 488.855469 1389.144531 489.800781 1393.304688 490.84375 C 1397.464844 491.890625 1401.597656 493.035156 1405.703125 494.28125 C 1409.808594 495.53125 1413.878906 496.878906 1417.917969 498.324219 C 1421.957031 499.773438 1425.957031 501.320312 1429.917969 502.964844 C 1433.882812 504.605469 1437.800781 506.347656 1441.679688 508.183594 Z M 1441.679688 508.183594 "/><g clip-rule="nonzero" clip-path="url(#3bbdea9c0c)"><path style="fill:none;stroke-width:1;stroke-linecap:butt;stroke-linejoin:miter;stroke:#ff6fbc;stroke-opacity:1;stroke-miterlimit:10;" d="M 401.160265 -20.009994 L 410.380822 -20.009544 C 412.118836 -20.009308 413.857385 -19.967267 415.593608 -19.882066 C 417.32983 -19.796864 419.063725 -19.668501 420.794616 -19.498409 C 422.525507 -19.328317 424.250531 -19.115139 425.970442 -18.860985 C 427.6896 -18.604722 429.403644 -18.307482 431.107604 -17.968664 C 432.813673 -17.629092 434.509659 -17.247942 436.19699 -16.82589 C 437.882892 -16.403161 439.558709 -15.938853 441.223086 -15.435829 C 442.88671 -14.930696 444.538141 -14.384737 446.175271 -13.798707 C 447.811723 -13.214107 449.43312 -12.587327 451.039538 -11.921905 C 452.645955 -11.256484 454.235962 -10.551744 455.80745 -9.808439 C 457.378938 -9.065133 458.931906 -8.283262 460.465677 -7.464258 C 461.999448 -6.645253 463.51116 -5.787758 465.003675 -4.893129 C 466.495511 -3.999932 467.96318 -3.068997 469.408865 -2.103114 C 470.854549 -1.13723 472.276141 -0.13715 473.672886 0.899235 C 475.069632 1.93562 476.439498 3.004017 477.78384 4.107288 C 479.128181 5.210559 480.444212 6.34652 481.733363 7.514492 C 483.021836 8.681033 484.280568 9.880941 485.509632 11.110677 C 486.740128 12.339734 487.938847 13.597866 489.106469 14.886502 C 490.274091 16.175138 491.40926 17.491417 492.511974 18.835339 C 493.615367 20.180692 494.684949 21.550825 495.7214 22.947169 C 496.75642 24.344191 497.756953 25.764562 498.724353 27.211144 C 499.689645 28.656974 500.61977 30.124721 501.513977 31.616494 C 502.408184 33.108268 503.264438 34.619775 504.084095 36.153877 C 504.903752 37.68798 505.684779 39.240384 506.429283 40.811844 C 507.172356 42.383982 507.876121 43.972991 508.542685 45.579623 C 509.207819 47.186934 509.833718 48.807575 510.418878 50.445765 C 511.00479 52.081846 511.550715 53.733366 512.055298 55.397464 C 512.55988 57.061561 513.023871 58.736127 513.44652 60.42327 C 513.869169 62.110413 514.24844 63.805839 514.588551 65.511056 C 514.927232 67.216951 515.225397 68.929773 515.479507 70.649448 C 515.735726 72.369877 515.948642 74.095048 516.118255 75.824963 C 516.288546 77.556309 516.416288 79.29029 516.501479 81.026905 C 516.586671 82.763519 516.630065 84.500659 516.63091 86.240434 L 516.630203 557.689572 C 516.630369 559.427915 516.587307 561.167461 516.502523 562.903992 C 516.416308 564.641201 516.289124 566.373286 516.118033 568.105143 C 515.947695 569.834891 515.734956 571.560192 515.479139 573.279616 C 515.225431 574.999794 514.927966 576.712663 514.588853 578.418976 C 514.249062 580.123858 513.868376 581.820076 513.446116 583.506199 C 513.022426 585.192999 512.560024 586.868348 512.055371 588.532171 C 511.549288 590.196671 511.005245 591.847611 510.419704 593.484915 C 509.833484 595.120788 509.207875 596.743778 508.542951 598.350346 C 507.875918 599.95616 507.171679 601.546305 506.428878 603.117918 C 505.686076 604.689532 504.904713 606.242613 504.084108 607.775732 C 503.264182 609.310281 502.407199 610.822081 501.513838 612.312563 C 500.619723 613.805153 499.689305 615.272884 498.723938 616.718619 C 497.75714 618.165032 496.7569 619.58523 495.721034 620.982 C 494.685168 622.378771 493.615859 623.749326 492.511677 625.094345 C 491.408925 626.438686 490.273484 627.754704 489.106031 629.043829 C 487.9379 630.331523 486.73994 631.589537 485.509969 632.820659 C 484.28075 634.049672 483.021703 635.249005 481.73358 636.41655 C 480.445458 637.584095 479.128259 638.719852 477.784847 639.822464 C 476.440004 640.925755 475.070378 641.995223 473.672428 643.030794 C 472.276588 644.067118 470.855286 645.068189 469.409953 646.033329 C 467.96319 646.999147 466.494505 647.929787 465.003221 648.823818 C 463.511936 649.717849 461.999482 650.574593 460.465859 651.394051 C 458.932236 652.213509 457.378875 652.995002 455.807885 653.739284 C 454.236216 654.482134 452.64624 655.186343 451.040066 655.852662 C 449.433213 656.517549 447.811592 657.14387 446.173848 657.728762 C 444.536781 658.315085 442.88713 658.860053 441.222033 659.365024 C 439.558367 659.869317 437.882795 660.333687 436.196069 660.756026 C 434.509343 661.178364 432.813572 661.559424 431.108078 661.897775 C 429.403262 662.237556 427.690833 662.535382 425.970111 662.78982 C 424.250068 663.045689 422.525272 663.258247 420.794292 663.42817 C 419.063991 663.599525 417.330368 663.726889 415.594102 663.811695 C 413.856404 663.897179 412.119603 663.94018 410.380158 663.940623 L 401.1596 663.940172 C 399.421586 663.939937 397.683037 663.897896 395.946815 663.812695 C 394.209915 663.726062 392.476697 663.59913 390.745807 663.429038 C 389.014238 663.257514 387.289892 663.045768 385.569303 662.790182 C 383.850145 662.533919 382.136779 662.238111 380.43214 661.897861 C 378.726749 661.559721 377.030764 661.178571 375.343432 660.756519 C 373.656853 660.332359 371.981714 659.869482 370.316659 659.365027 C 368.653035 658.859894 367.002281 658.315366 365.365151 657.729336 C 363.728022 657.143305 362.107303 656.517956 360.500885 655.852534 C 358.892359 655.18636 357.30446 654.482373 355.732973 653.739067 C 354.159376 652.995009 352.607086 652.214569 351.074067 651.393455 C 349.540296 650.57445 348.028584 649.716956 346.536748 648.823758 C 345.044911 647.93056 343.577242 646.999626 342.131558 646.033743 C 340.683764 645.067106 339.263604 644.066348 337.866858 643.029963 C 336.47079 641.995009 335.100247 640.925181 333.755905 639.82191 C 332.411563 638.718639 331.09621 637.584109 329.807059 636.416137 C 328.517908 635.248165 327.259855 634.049688 326.029359 632.82063 C 324.800295 631.590895 323.600897 630.331332 322.433275 629.042696 C 321.266331 627.755491 320.130485 626.43778 319.02777 625.093859 C 317.925056 623.749937 316.855473 622.379804 315.819022 620.98346 C 314.784002 619.586438 313.782792 618.164636 312.81607 616.719484 C 311.850778 615.273655 310.919974 613.804477 310.025767 612.312703 C 309.132239 610.822361 308.275307 609.309423 307.455649 607.77532 C 306.63667 606.242649 305.854966 604.688813 305.110461 603.117353 C 304.367388 601.545216 303.663623 599.956207 302.997059 598.349574 C 302.332603 596.743695 301.706026 595.121623 301.121545 593.484864 C 300.534954 591.847352 299.989707 590.197263 299.485125 588.533165 C 298.980543 586.869068 298.515873 585.193071 298.093903 583.507359 C 297.671254 581.820216 297.291305 580.123358 296.951193 578.418142 C 296.612512 576.712247 296.315025 575.000856 296.060237 573.279749 C 295.804697 571.560752 295.591781 569.835581 295.421489 568.104235 C 295.251876 566.37432 295.124135 564.640339 295.038943 562.903724 C 294.951643 561.166356 294.909679 559.428538 294.909513 557.690195 L 294.909542 86.239626 C 294.909375 84.501283 294.953115 82.763168 295.037899 81.026636 C 295.122683 79.290105 295.250621 77.555911 295.422389 75.825486 C 295.592727 74.095738 295.805466 72.370437 296.060605 70.649581 C 296.314314 68.929404 296.611779 67.216535 296.95157 65.511653 C 297.291361 63.80677 297.672047 62.110552 298.093628 60.422999 C 298.517318 58.736199 298.97972 57.060849 299.484373 55.397027 C 299.989026 53.733205 300.535178 52.083018 301.120719 50.445714 C 301.70626 48.80841 302.332547 47.186851 302.997471 45.580283 C 303.663826 43.973038 304.367313 42.385002 305.111545 40.812711 C 305.854346 39.241097 306.63571 37.688016 307.455636 36.153466 C 308.27624 34.620348 309.132545 33.107116 310.025907 31.616635 C 310.920699 30.125476 311.85044 28.656314 312.815807 27.210579 C 313.782604 25.764166 314.782844 24.343968 315.81871 22.947198 C 316.854577 21.550427 317.923885 20.179871 319.028068 18.834852 C 320.131497 17.491943 321.26626 16.174494 322.434392 14.8868 C 323.601845 13.597675 324.799804 12.339661 326.030454 11.10997 C 327.259672 9.880957 328.518719 8.681624 329.806842 7.514079 C 331.094965 6.346534 332.412163 5.210777 333.755575 4.108165 C 335.100419 3.004874 336.470045 1.935406 337.867316 0.898404 C 339.263835 -0.136489 340.685137 -1.13756 342.130469 -2.1027 C 343.576554 -3.069949 345.045239 -4.000589 346.537202 -4.893189 C 348.028487 -5.78722 349.54094 -6.643965 351.073885 -7.464853 C 352.607508 -8.284311 354.160869 -9.065804 355.732538 -9.808655 C 357.304206 -10.551505 358.893504 -11.257145 360.500357 -11.922033 C 362.106532 -12.588352 363.72883 -13.213241 365.365897 -13.799564 C 367.003642 -14.384456 368.653293 -14.929425 370.316281 -15.435149 C 371.981377 -15.940119 373.656197 -16.40238 375.343676 -16.826828 C 377.030402 -17.249166 378.726851 -17.628795 380.431666 -17.968577 C 382.13716 -18.306928 383.84959 -18.604753 385.569633 -18.860622 C 387.290355 -19.11506 389.015151 -19.327618 390.745452 -19.498972 C 392.476432 -19.668896 394.210054 -19.79626 395.946321 -19.881066 C 397.68334 -19.967982 399.42082 -20.009551 401.160265 -20.009994 Z M 401.160265 -20.009994 " transform="matrix(2.229699,1.05604,-1.056356,2.229033,526.075314,129.145241)"/></g><path style=" stroke:none;fill-rule:nonzero;fill:#4cc8e9;fill-opacity:1;" d="M 1245.488281 520.386719 L 1266.183594 510.945312 C 1270.085938 509.164062 1274.03125 507.480469 1278.015625 505.894531 C 1282 504.308594 1286.023438 502.820312 1290.082031 501.429688 C 1294.140625 500.039062 1298.230469 498.75 1302.351562 497.5625 C 1306.476562 496.375 1310.625 495.285156 1314.800781 494.300781 C 1318.976562 493.316406 1323.171875 492.433594 1327.390625 491.652344 C 1331.609375 490.875 1335.84375 490.199219 1340.097656 489.628906 C 1344.347656 489.058594 1348.613281 488.589844 1352.886719 488.226562 C 1357.164062 487.867188 1361.445312 487.609375 1365.730469 487.457031 C 1370.019531 487.304688 1374.308594 487.257812 1378.597656 487.316406 C 1382.886719 487.375 1387.171875 487.539062 1391.457031 487.808594 C 1395.738281 488.078125 1400.007812 488.453125 1404.273438 488.929688 C 1408.535156 489.410156 1412.785156 489.992188 1417.019531 490.679688 C 1421.253906 491.367188 1425.472656 492.15625 1429.667969 493.050781 C 1433.863281 493.945312 1438.035156 494.941406 1442.179688 496.039062 C 1446.328125 497.140625 1450.445312 498.339844 1454.535156 499.640625 C 1458.621094 500.941406 1462.675781 502.339844 1466.695312 503.839844 C 1470.714844 505.339844 1474.695312 506.9375 1478.636719 508.632812 C 1482.578125 510.328125 1486.472656 512.121094 1490.328125 514.007812 C 1494.179688 515.894531 1497.984375 517.875 1501.738281 519.945312 C 1505.496094 522.019531 1509.199219 524.183594 1512.847656 526.4375 C 1516.496094 528.695312 1520.089844 531.035156 1523.621094 533.46875 C 1527.15625 535.898438 1530.628906 538.417969 1534.039062 541.019531 C 1537.449219 543.621094 1540.796875 546.304688 1544.074219 549.070312 C 1547.351562 551.835938 1550.5625 554.679688 1553.703125 557.601562 C 1556.839844 560.527344 1559.90625 563.527344 1562.898438 566.597656 C 1565.890625 569.671875 1568.804688 572.820312 1571.644531 576.035156 C 1574.480469 579.253906 1577.238281 582.539062 1579.914062 585.890625 C 1582.589844 589.242188 1585.179688 592.65625 1587.691406 596.136719 C 1590.199219 599.617188 1592.621094 603.15625 1594.953125 606.753906 C 1597.289062 610.351562 1599.535156 614.003906 1601.6875 617.714844 C 1603.84375 621.421875 1605.90625 625.183594 1607.878906 628.992188 C 1609.847656 632.800781 1611.722656 636.65625 1613.503906 640.558594 L 2095.109375 1695.558594 C 2096.890625 1699.460938 2098.574219 1703.40625 2100.160156 1707.390625 C 2101.75 1711.375 2103.238281 1715.394531 2104.628906 1719.453125 C 2106.015625 1723.511719 2107.308594 1727.597656 2108.496094 1731.71875 C 2109.683594 1735.839844 2110.773438 1739.988281 2111.757812 1744.164062 C 2112.742188 1748.335938 2113.625 1752.53125 2114.40625 1756.75 C 2115.183594 1760.96875 2115.859375 1765.203125 2116.433594 1769.453125 C 2117.003906 1773.703125 2117.46875 1777.964844 2117.832031 1782.238281 C 2118.195312 1786.511719 2118.453125 1790.792969 2118.605469 1795.078125 C 2118.753906 1799.367188 2118.800781 1803.652344 2118.742188 1807.941406 C 2118.683594 1812.230469 2118.519531 1816.515625 2118.253906 1820.796875 C 2117.984375 1825.074219 2117.609375 1829.347656 2117.128906 1833.609375 C 2116.652344 1837.871094 2116.070312 1842.121094 2115.382812 1846.351562 C 2114.695312 1850.585938 2113.902344 1854.800781 2113.007812 1858.996094 C 2112.113281 1863.191406 2111.117188 1867.359375 2110.019531 1871.507812 C 2108.917969 1875.652344 2107.71875 1879.769531 2106.417969 1883.855469 C 2105.117188 1887.941406 2103.714844 1891.996094 2102.214844 1896.011719 C 2100.714844 1900.03125 2099.117188 1904.011719 2097.421875 1907.949219 C 2095.726562 1911.890625 2093.933594 1915.785156 2092.046875 1919.636719 C 2090.160156 1923.488281 2088.179688 1927.292969 2086.105469 1931.046875 C 2084.03125 1934.800781 2081.867188 1938.503906 2079.609375 1942.152344 C 2077.355469 1945.800781 2075.011719 1949.390625 2072.578125 1952.921875 C 2070.148438 1956.457031 2067.628906 1959.929688 2065.027344 1963.335938 C 2062.425781 1966.746094 2059.738281 1970.089844 2056.972656 1973.367188 C 2054.207031 1976.648438 2051.359375 1979.855469 2048.4375 1982.992188 C 2045.511719 1986.132812 2042.511719 1989.195312 2039.4375 1992.1875 C 2036.363281 1995.179688 2033.21875 1998.09375 2030 2000.929688 C 2026.78125 2003.765625 2023.496094 2006.523438 2020.140625 2009.195312 C 2016.789062 2011.871094 2013.371094 2014.464844 2009.890625 2016.972656 C 2006.410156 2019.480469 2002.871094 2021.898438 1999.273438 2024.234375 C 1995.671875 2026.566406 1992.019531 2028.8125 1988.308594 2030.964844 C 1984.597656 2033.121094 1980.839844 2035.183594 1977.027344 2037.152344 C 1973.214844 2039.125 1969.359375 2041 1965.457031 2042.777344 L 1944.761719 2052.21875 C 1940.859375 2054 1936.914062 2055.683594 1932.929688 2057.273438 C 1928.941406 2058.859375 1924.921875 2060.347656 1920.863281 2061.738281 C 1916.800781 2063.125 1912.710938 2064.417969 1908.589844 2065.605469 C 1904.46875 2066.792969 1900.320312 2067.882812 1896.144531 2068.867188 C 1891.96875 2069.851562 1887.769531 2070.734375 1883.550781 2071.511719 C 1879.332031 2072.292969 1875.097656 2072.96875 1870.84375 2073.539062 C 1866.59375 2074.109375 1862.328125 2074.578125 1858.054688 2074.9375 C 1853.78125 2075.300781 1849.5 2075.558594 1845.210938 2075.710938 C 1840.921875 2075.859375 1836.636719 2075.90625 1832.34375 2075.847656 C 1828.054688 2075.789062 1823.769531 2075.628906 1819.488281 2075.359375 C 1815.207031 2075.089844 1810.933594 2074.714844 1806.667969 2074.238281 C 1802.40625 2073.757812 1798.15625 2073.175781 1793.921875 2072.488281 C 1789.6875 2071.800781 1785.472656 2071.011719 1781.277344 2070.117188 C 1777.082031 2069.222656 1772.910156 2068.226562 1768.761719 2067.125 C 1764.613281 2066.027344 1760.496094 2064.828125 1756.410156 2063.527344 C 1752.320312 2062.226562 1748.265625 2060.824219 1744.246094 2059.324219 C 1740.226562 2057.824219 1736.25 2056.226562 1732.308594 2054.53125 C 1728.367188 2052.835938 1724.46875 2051.046875 1720.617188 2049.160156 C 1716.765625 2047.273438 1712.960938 2045.292969 1709.203125 2043.21875 C 1705.449219 2041.148438 1701.746094 2038.984375 1698.097656 2036.726562 C 1694.445312 2034.472656 1690.855469 2032.128906 1687.320312 2029.699219 C 1683.785156 2027.265625 1680.3125 2024.75 1676.902344 2022.148438 C 1673.492188 2019.546875 1670.148438 2016.863281 1666.867188 2014.097656 C 1663.589844 2011.332031 1660.378906 2008.488281 1657.242188 2005.5625 C 1654.101562 2002.640625 1651.035156 1999.640625 1648.042969 1996.566406 C 1645.050781 1993.492188 1642.136719 1990.347656 1639.300781 1987.132812 C 1636.460938 1983.914062 1633.707031 1980.628906 1631.03125 1977.277344 C 1628.355469 1973.925781 1625.761719 1970.507812 1623.253906 1967.03125 C 1620.746094 1963.550781 1618.324219 1960.011719 1615.988281 1956.414062 C 1613.652344 1952.816406 1611.410156 1949.160156 1609.253906 1945.453125 C 1607.097656 1941.742188 1605.035156 1937.984375 1603.066406 1934.175781 C 1601.09375 1930.367188 1599.21875 1926.507812 1597.4375 1922.609375 L 1115.835938 867.605469 C 1114.054688 863.707031 1112.371094 859.761719 1110.78125 855.777344 C 1109.195312 851.792969 1107.707031 847.773438 1106.316406 843.714844 C 1104.925781 839.65625 1103.636719 835.566406 1102.445312 831.445312 C 1101.257812 827.324219 1100.171875 823.179688 1099.183594 819.003906 C 1098.199219 814.828125 1097.316406 810.632812 1096.539062 806.417969 C 1095.757812 802.199219 1095.082031 797.964844 1094.511719 793.714844 C 1093.941406 789.464844 1093.472656 785.199219 1093.109375 780.925781 C 1092.75 776.652344 1092.492188 772.375 1092.339844 768.085938 C 1092.1875 763.800781 1092.140625 759.511719 1092.199219 755.226562 C 1092.257812 750.9375 1092.421875 746.652344 1092.691406 742.371094 C 1092.960938 738.089844 1093.332031 733.820312 1093.8125 729.558594 C 1094.292969 725.296875 1094.875 721.046875 1095.5625 716.8125 C 1096.25 712.582031 1097.039062 708.367188 1097.933594 704.171875 C 1098.828125 699.976562 1099.824219 695.804688 1100.925781 691.660156 C 1102.023438 687.515625 1103.222656 683.398438 1104.523438 679.3125 C 1105.828125 675.222656 1107.226562 671.171875 1108.726562 667.152344 C 1110.226562 663.136719 1111.828125 659.15625 1113.523438 655.21875 C 1115.21875 651.277344 1117.007812 647.382812 1118.898438 643.53125 C 1120.785156 639.679688 1122.765625 635.875 1124.839844 632.121094 C 1126.910156 628.367188 1129.078125 624.664062 1131.332031 621.015625 C 1133.589844 617.367188 1135.933594 613.777344 1138.363281 610.242188 C 1140.796875 606.710938 1143.3125 603.238281 1145.914062 599.828125 C 1148.519531 596.417969 1151.203125 593.074219 1153.96875 589.796875 C 1156.738281 586.519531 1159.582031 583.3125 1162.507812 580.171875 C 1165.429688 577.035156 1168.429688 573.96875 1171.503906 570.980469 C 1174.578125 567.988281 1177.726562 565.074219 1180.945312 562.238281 C 1184.160156 559.402344 1187.449219 556.644531 1190.800781 553.96875 C 1194.152344 551.292969 1197.570312 548.703125 1201.050781 546.195312 C 1204.53125 543.6875 1208.070312 541.265625 1211.671875 538.933594 C 1215.269531 536.597656 1218.925781 534.355469 1222.636719 532.199219 C 1226.34375 530.046875 1230.105469 527.984375 1233.917969 526.011719 C 1237.726562 524.042969 1241.582031 522.167969 1245.488281 520.386719 Z M 1245.488281 520.386719 "/><g clip-rule="nonzero" clip-path="url(#c3dd99f564)"><path style="fill:none;stroke-width:1;stroke-linecap:butt;stroke-linejoin:miter;stroke:#4cc8e9;stroke-opacity:1;stroke-miterlimit:10;" d="M 609.770654 -16.820147 L 618.990702 -16.820051 C 620.729412 -16.820388 622.467528 -16.777476 624.20361 -16.691971 C 625.939692 -16.606466 627.673739 -16.47837 629.404312 -16.308338 C 631.134885 -16.138307 632.859886 -15.925557 634.579314 -15.67009 C 636.300182 -15.413964 638.013255 -15.117877 639.718657 -14.778287 C 641.42406 -14.438697 643.119569 -14.058362 644.806624 -13.636622 C 646.493023 -13.213442 648.168088 -12.750173 649.832601 -12.244717 C 651.495675 -11.739918 653.147414 -11.19503 654.784282 -10.609927 C 656.421932 -10.022726 658.043928 -9.397408 659.649611 -8.732532 C 661.256735 -8.066999 662.846107 -7.362565 664.417725 -6.619231 C 665.989344 -5.875896 667.541769 -5.094319 669.076443 -4.273841 C 670.609675 -3.454021 672.120835 -2.597271 673.613458 -1.70372 C 675.103984 -0.809385 676.573094 0.120438 678.01869 1.086532 C 679.464286 2.052627 680.887026 3.053551 682.283371 4.089433 C 683.679716 5.125314 685.050324 6.194711 686.393755 7.296967 C 687.737968 8.401321 689.054221 9.536436 690.343297 10.704409 C 691.630933 11.871724 692.890608 13.069801 694.120225 14.299421 C 695.349843 15.529041 696.548619 16.788107 697.716554 18.076619 C 698.88449 19.365132 700.018704 20.681775 701.122735 22.026424 C 702.225325 23.370415 703.294851 24.741097 704.330531 26.136371 C 705.366993 27.533743 706.368168 28.955051 707.334056 30.400293 C 708.299286 31.846977 709.230544 33.314714 710.122977 34.806512 C 711.017508 36.297527 711.873871 37.811163 712.693381 39.344537 C 713.512891 40.877912 714.295548 42.431025 715.038472 44.002564 C 715.781396 45.574102 716.486684 47.163281 717.152896 48.769443 C 717.81701 50.376389 718.442706 51.998878 719.0292 53.634812 C 719.615037 55.272187 720.159575 56.92379 720.665569 58.587397 C 721.169465 60.251787 721.633377 61.927524 722.055865 63.613951 C 722.478352 65.300378 722.858633 66.995396 723.198929 68.701761 C 723.537785 70.407468 723.835091 72.120326 724.089407 73.839678 C 724.345163 75.559687 724.558586 77.284748 724.72758 79.015646 C 724.898671 80.74576 725.025989 82.480269 725.112289 84.216949 C 725.19715 85.952972 725.239552 87.690509 725.239496 89.429559 L 725.240629 559.589861 C 725.240573 561.328912 725.197276 563.067378 725.111397 564.803819 C 725.026957 566.540918 724.899152 568.273893 724.728763 570.004843 C 724.556934 571.735136 724.345935 573.459739 724.090129 575.179561 C 723.834323 576.899384 723.537906 578.612859 723.197998 580.318672 C 722.858748 582.023044 722.478104 583.718971 722.056066 585.406452 C 721.632588 587.093277 721.169031 588.768774 720.665396 590.432944 C 720.160321 592.096457 719.614384 593.746545 719.029026 595.383865 C 718.443668 597.021186 717.818106 598.64364 717.152998 600.249788 C 716.485792 601.85672 715.781795 603.44512 715.038252 605.017215 C 714.294708 606.589309 713.512933 608.142215 712.694368 609.67659 C 711.875019 611.208868 711.017439 612.721957 710.122942 614.212977 C 709.229886 615.704654 708.299914 617.174261 707.33434 618.618918 C 706.368109 620.065015 705.366276 621.486161 704.330282 622.883013 C 703.294288 624.279866 702.225448 625.649543 701.122448 626.994926 C 700.018664 628.338211 698.883475 629.654978 697.716097 630.94313 C 696.548719 632.231281 695.349152 633.490816 694.120153 634.719511 C 692.890496 635.949646 691.631405 637.148942 690.343539 638.315956 C 689.055016 639.484411 687.738374 640.619144 686.394397 641.722254 C 685.05042 642.825364 683.679765 643.895409 682.28309 644.930948 C 680.886415 645.966488 679.46516 646.96818 678.018542 647.933926 C 676.573364 648.90033 675.104921 649.830003 673.613213 650.722948 C 672.122288 651.61799 670.608756 652.474862 669.076154 653.293438 C 667.542894 654.113455 665.989125 654.894518 664.417727 655.637942 C 662.845672 656.382806 661.255862 657.086493 659.650521 657.751758 C 658.043082 658.417805 656.421427 659.042549 654.78424 659.62887 C 653.147054 660.215192 651.497092 660.760866 649.832913 661.265237 C 648.168735 661.769607 646.493221 662.233988 644.806246 662.654841 C 643.120054 663.077792 641.423184 663.459313 639.717734 663.79862 C 638.012284 664.137928 636.300352 664.434238 634.580622 664.690432 C 632.860109 664.944529 631.135337 665.158384 629.40474 665.327801 C 627.673486 665.498658 625.940728 665.62705 624.203585 665.711661 C 622.465785 665.797714 620.728579 665.840516 618.990527 665.839412 L 609.770479 665.839317 C 608.031768 665.839653 606.293652 665.796741 604.556913 665.712677 C 602.819391 665.626515 601.086784 665.499076 599.356211 665.329044 C 597.624855 665.156915 595.899197 664.945606 594.179769 664.690138 C 592.460341 664.434671 590.747268 664.138583 589.041866 663.798993 C 587.336463 663.459403 585.639514 663.07841 583.953116 662.65523 C 582.26606 662.233491 580.590995 661.770222 578.926482 661.264765 C 577.263408 660.759966 575.611669 660.215079 573.975458 659.628535 C 572.338591 659.043432 570.716595 658.418114 569.109471 657.752581 C 567.503005 657.085607 565.915074 656.38183 564.342015 655.637839 C 562.770396 654.894504 561.217313 654.114368 559.68408 653.294547 C 558.150848 652.474727 556.638248 651.61732 555.145624 650.723768 C 553.655098 649.829433 552.185988 648.89961 550.740392 647.933516 C 549.294796 646.967422 547.873497 645.967155 546.477152 644.931273 C 545.080807 643.895392 543.710199 642.825995 542.365986 641.721641 C 541.021115 640.618728 539.704861 639.483613 538.417226 638.316297 C 537.12815 637.148324 535.869132 635.948807 534.639515 634.719187 C 533.409898 633.489567 532.212562 632.231158 531.044626 630.942646 C 529.876691 629.654134 528.740379 628.338274 527.637788 626.994283 C 526.535198 625.650291 525.465672 624.27961 524.42921 622.882237 C 523.39353 621.486963 522.392355 620.065655 521.427125 618.618972 C 520.459797 617.173072 519.530636 615.704551 518.636106 614.213536 C 517.742232 612.721081 516.885212 611.208886 516.065702 609.675511 C 515.246192 608.142137 514.464975 606.589681 513.720611 605.017485 C 512.977687 603.445947 512.272399 601.856768 511.608285 600.249822 C 510.942073 598.64366 510.316377 597.02117 509.73054 595.383796 C 509.144703 593.746421 508.599508 592.096259 508.094954 590.433309 C 507.589618 588.768262 507.127146 587.093182 506.704658 585.406755 C 506.282171 583.720328 505.901108 582.023212 505.561594 580.318945 C 505.222738 578.613238 504.925432 576.90038 504.669676 575.180371 C 504.41392 573.460362 504.202594 571.734517 504.031503 570.004403 C 503.861069 568.272848 503.733094 566.53978 503.648234 564.803757 C 503.561933 563.067077 503.520188 561.328099 503.519587 559.590489 L 503.520552 89.429404 C 503.51995 87.691794 503.563247 85.953328 503.647686 84.21623 C 503.733566 82.479789 503.861371 80.746813 504.03176 79.015863 C 504.202149 77.284913 504.415246 75.559527 504.669611 73.839047 C 504.925417 72.119224 505.222617 70.407847 505.561085 68.701377 C 505.900993 66.995564 506.281637 65.299637 506.704457 63.614254 C 507.126495 61.926772 507.590051 60.251275 508.095127 58.587762 C 508.600202 56.924249 509.145356 55.272063 509.730714 53.634743 C 510.317512 51.99808 510.942417 50.377066 511.608182 48.769477 C 512.273291 47.163329 512.977945 45.573488 513.720831 44.002834 C 514.464374 42.43074 515.246149 40.877834 516.066156 39.344116 C 516.886162 37.810398 517.741644 36.298092 518.63614 34.807072 C 519.530637 33.316052 520.460609 31.846445 521.426841 30.400348 C 522.392415 28.955691 523.392807 27.533888 524.428801 26.137035 C 525.464794 24.740183 526.534292 23.369065 527.638075 22.02578 C 528.740419 20.681838 529.875608 19.36507 531.042986 18.076919 C 532.212462 16.787985 533.40993 15.529233 534.639587 14.299097 C 535.868587 13.070402 537.129118 11.871764 538.416984 10.70475 C 539.705507 9.536295 541.020708 8.400904 542.366126 7.298452 C 543.710103 6.195343 545.080758 5.125297 546.477433 4.089758 C 547.872668 3.05356 549.295363 2.052526 550.740541 1.086123 C 552.187159 0.120377 553.655602 -0.809297 555.146527 -1.70434 C 556.638235 -2.597284 558.150327 -3.454814 559.683586 -4.27483 C 561.218286 -5.09419 562.770615 -5.87591 564.342013 -6.619334 C 565.914851 -7.3621 567.503221 -8.066445 569.11066 -8.732492 C 570.716001 -9.397757 572.338314 -10.023941 573.974842 -10.608822 C 575.612029 -11.195143 577.263431 -11.74016 578.92761 -12.244531 C 580.590348 -12.749559 582.267302 -13.213282 583.953494 -13.636233 C 585.639686 -14.059184 587.335898 -14.439264 589.041348 -14.778572 C 590.746799 -15.117879 592.459389 -15.41563 594.179901 -15.669726 C 595.899631 -15.925921 597.625186 -16.137677 599.35644 -16.308535 C 601.085596 -16.47861 602.819795 -16.606344 604.557595 -16.692396 C 606.293297 -16.777665 608.030504 -16.820468 609.770654 -16.820147 Z M 609.770654 -16.820147 " transform="matrix(2.244589,-1.024032,1.024338,2.243918,-105.966454,1182.554219)"/></g><path style=" stroke:none;fill-rule:nonzero;fill:#ff6fbc;fill-opacity:1;" d="M 2457.078125 509.664062 L 2477.632812 519.402344 C 2481.511719 521.238281 2485.339844 523.167969 2489.125 525.191406 C 2492.90625 527.21875 2496.636719 529.332031 2500.316406 531.539062 C 2503.992188 533.75 2507.617188 536.042969 2511.179688 538.429688 C 2514.746094 540.816406 2518.25 543.285156 2521.695312 545.84375 C 2525.140625 548.398438 2528.519531 551.039062 2531.835938 553.761719 C 2535.148438 556.488281 2538.394531 559.289062 2541.570312 562.171875 C 2544.75 565.054688 2547.851562 568.011719 2550.882812 571.046875 C 2553.914062 574.082031 2556.871094 577.1875 2559.75 580.367188 C 2562.628906 583.546875 2565.429688 586.796875 2568.148438 590.113281 C 2570.867188 593.433594 2573.503906 596.8125 2576.058594 600.261719 C 2578.613281 603.707031 2581.078125 607.214844 2583.460938 610.78125 C 2585.839844 614.347656 2588.132812 617.972656 2590.335938 621.652344 C 2592.539062 625.332031 2594.652344 629.066406 2596.671875 632.847656 C 2598.691406 636.632812 2600.617188 640.464844 2602.449219 644.34375 C 2604.28125 648.222656 2606.015625 652.140625 2607.65625 656.105469 C 2609.292969 660.070312 2610.835938 664.070312 2612.277344 668.109375 C 2613.722656 672.148438 2615.0625 676.222656 2616.304688 680.328125 C 2617.550781 684.429688 2618.691406 688.566406 2619.730469 692.726562 C 2620.769531 696.886719 2621.707031 701.070312 2622.539062 705.277344 C 2623.375 709.484375 2624.105469 713.710938 2624.730469 717.953125 C 2625.359375 722.195312 2625.882812 726.453125 2626.300781 730.71875 C 2626.71875 734.988281 2627.03125 739.265625 2627.238281 743.550781 C 2627.445312 747.832031 2627.546875 752.121094 2627.542969 756.410156 C 2627.542969 760.699219 2627.433594 764.984375 2627.21875 769.265625 C 2627.007812 773.550781 2626.6875 777.828125 2626.265625 782.09375 C 2625.84375 786.363281 2625.3125 790.617188 2624.683594 794.859375 C 2624.050781 799.101562 2623.3125 803.328125 2622.472656 807.53125 C 2621.632812 811.738281 2620.691406 815.921875 2619.648438 820.082031 C 2618.601562 824.242188 2617.453125 828.371094 2616.207031 832.476562 C 2614.957031 836.578125 2613.609375 840.648438 2612.164062 844.6875 C 2610.714844 848.726562 2609.167969 852.722656 2607.523438 856.683594 C 2605.878906 860.648438 2604.140625 864.566406 2602.300781 868.441406 L 2105.644531 1916.445312 C 2103.808594 1920.320312 2101.878906 1924.148438 2099.855469 1927.929688 C 2097.828125 1931.710938 2095.710938 1935.441406 2093.503906 1939.117188 C 2091.296875 1942.792969 2089 1946.414062 2086.613281 1949.980469 C 2084.226562 1953.542969 2081.753906 1957.046875 2079.199219 1960.492188 C 2076.640625 1963.933594 2074 1967.3125 2071.273438 1970.628906 C 2068.550781 1973.941406 2065.746094 1977.1875 2062.863281 1980.363281 C 2059.980469 1983.539062 2057.019531 1986.640625 2053.984375 1989.671875 C 2050.949219 1992.703125 2047.84375 1995.65625 2044.660156 1998.535156 C 2041.480469 2001.414062 2038.230469 2004.210938 2034.914062 2006.929688 C 2031.59375 2009.648438 2028.210938 2012.285156 2024.765625 2014.835938 C 2021.316406 2017.390625 2017.808594 2019.855469 2014.238281 2022.238281 C 2010.671875 2024.617188 2007.046875 2026.910156 2003.363281 2029.113281 C 1999.683594 2031.316406 1995.949219 2033.425781 1992.164062 2035.445312 C 1988.378906 2037.464844 1984.546875 2039.390625 1980.667969 2041.222656 C 1976.789062 2043.050781 1972.867188 2044.785156 1968.902344 2046.425781 C 1964.9375 2048.066406 1960.933594 2049.605469 1956.894531 2051.046875 C 1952.855469 2052.488281 1948.78125 2053.832031 1944.675781 2055.074219 C 1940.566406 2056.316406 1936.433594 2057.457031 1932.269531 2058.496094 C 1928.109375 2059.535156 1923.921875 2060.472656 1919.714844 2061.308594 C 1915.507812 2062.140625 1911.28125 2062.871094 1907.035156 2063.496094 C 1902.792969 2064.125 1898.535156 2064.644531 1894.265625 2065.0625 C 1889.996094 2065.480469 1885.71875 2065.792969 1881.433594 2066 C 1877.148438 2066.210938 1872.859375 2066.3125 1868.570312 2066.308594 C 1864.277344 2066.304688 1859.992188 2066.199219 1855.707031 2065.984375 C 1851.421875 2065.773438 1847.144531 2065.453125 1842.875 2065.03125 C 1838.605469 2064.605469 1834.347656 2064.078125 1830.105469 2063.449219 C 1825.863281 2062.816406 1821.636719 2062.078125 1817.429688 2061.238281 C 1813.222656 2060.402344 1809.039062 2059.457031 1804.878906 2058.414062 C 1800.714844 2057.367188 1796.582031 2056.222656 1792.480469 2054.976562 C 1788.375 2053.726562 1784.300781 2052.378906 1780.265625 2050.933594 C 1776.226562 2049.484375 1772.226562 2047.9375 1768.261719 2046.292969 C 1764.300781 2044.652344 1760.378906 2042.910156 1756.503906 2041.074219 L 1735.945312 2031.335938 C 1732.066406 2029.5 1728.238281 2027.570312 1724.457031 2025.546875 C 1720.671875 2023.523438 1716.941406 2021.40625 1713.265625 2019.199219 C 1709.585938 2016.992188 1705.964844 2014.695312 1702.398438 2012.308594 C 1698.832031 2009.925781 1695.328125 2007.453125 1691.882812 2004.898438 C 1688.4375 2002.339844 1685.058594 1999.699219 1681.746094 1996.976562 C 1678.429688 1994.253906 1675.183594 1991.449219 1672.007812 1988.566406 C 1668.832031 1985.6875 1665.726562 1982.726562 1662.695312 1979.691406 C 1659.664062 1976.65625 1656.707031 1973.550781 1653.828125 1970.371094 C 1650.949219 1967.191406 1648.148438 1963.941406 1645.429688 1960.625 C 1642.710938 1957.308594 1640.074219 1953.925781 1637.519531 1950.480469 C 1634.96875 1947.03125 1632.5 1943.527344 1630.121094 1939.957031 C 1627.738281 1936.390625 1625.445312 1932.765625 1623.242188 1929.085938 C 1621.039062 1925.40625 1618.929688 1921.675781 1616.90625 1917.890625 C 1614.886719 1914.105469 1612.960938 1910.273438 1611.128906 1906.398438 C 1609.300781 1902.519531 1607.5625 1898.597656 1605.925781 1894.632812 C 1604.285156 1890.671875 1602.742188 1886.667969 1601.300781 1882.628906 C 1599.859375 1878.589844 1598.515625 1874.519531 1597.273438 1870.414062 C 1596.03125 1866.308594 1594.890625 1862.175781 1593.847656 1858.015625 C 1592.808594 1853.851562 1591.871094 1849.667969 1591.039062 1845.460938 C 1590.203125 1841.253906 1589.472656 1837.03125 1588.847656 1832.785156 C 1588.21875 1828.542969 1587.699219 1824.289062 1587.28125 1820.019531 C 1586.863281 1815.75 1586.550781 1811.472656 1586.34375 1807.191406 C 1586.132812 1802.90625 1586.03125 1798.621094 1586.035156 1794.332031 C 1586.039062 1790.042969 1586.144531 1785.753906 1586.359375 1781.472656 C 1586.570312 1777.1875 1586.890625 1772.914062 1587.3125 1768.644531 C 1587.738281 1764.375 1588.265625 1760.121094 1588.898438 1755.878906 C 1589.53125 1751.636719 1590.265625 1747.414062 1591.105469 1743.207031 C 1591.945312 1739 1592.886719 1734.816406 1593.933594 1730.660156 C 1594.976562 1726.5 1596.125 1722.367188 1597.371094 1718.265625 C 1598.621094 1714.160156 1599.96875 1710.089844 1601.417969 1706.054688 C 1602.863281 1702.015625 1604.410156 1698.015625 1606.054688 1694.054688 C 1607.699219 1690.09375 1609.441406 1686.175781 1611.277344 1682.296875 L 2107.933594 634.296875 C 2109.769531 630.421875 2111.703125 626.589844 2113.726562 622.8125 C 2115.75 619.03125 2117.867188 615.300781 2120.074219 611.621094 C 2122.285156 607.945312 2124.582031 604.324219 2126.964844 600.761719 C 2129.351562 597.195312 2131.824219 593.691406 2134.382812 590.25 C 2136.941406 586.804688 2139.582031 583.425781 2142.304688 580.113281 C 2145.027344 576.800781 2147.832031 573.554688 2150.714844 570.378906 C 2153.597656 567.203125 2156.558594 564.097656 2159.59375 561.066406 C 2162.628906 558.039062 2165.738281 555.082031 2168.917969 552.203125 C 2172.097656 549.328125 2175.347656 546.527344 2178.667969 543.808594 C 2181.984375 541.089844 2185.367188 538.453125 2188.816406 535.902344 C 2192.261719 533.347656 2195.769531 530.882812 2199.339844 528.503906 C 2202.910156 526.121094 2206.535156 523.832031 2210.214844 521.628906 C 2213.894531 519.425781 2217.628906 517.3125 2221.414062 515.292969 C 2225.199219 513.277344 2229.03125 511.351562 2232.910156 509.519531 C 2236.789062 507.6875 2240.714844 505.953125 2244.679688 504.3125 C 2248.640625 502.675781 2252.644531 501.136719 2256.683594 499.691406 C 2260.726562 498.25 2264.800781 496.90625 2268.90625 495.664062 C 2273.011719 494.421875 2277.144531 493.28125 2281.308594 492.242188 C 2285.472656 491.203125 2289.65625 490.265625 2293.863281 489.433594 C 2298.074219 488.597656 2302.300781 487.867188 2306.542969 487.242188 C 2310.789062 486.617188 2315.042969 486.09375 2319.316406 485.675781 C 2323.585938 485.257812 2327.863281 484.945312 2332.148438 484.738281 C 2336.433594 484.53125 2340.71875 484.429688 2345.011719 484.429688 C 2349.300781 484.433594 2353.589844 484.542969 2357.875 484.753906 C 2362.15625 484.96875 2366.433594 485.285156 2370.703125 485.710938 C 2374.972656 486.132812 2379.230469 486.660156 2383.472656 487.292969 C 2387.71875 487.925781 2391.941406 488.660156 2396.148438 489.5 C 2400.355469 490.339844 2404.539062 491.28125 2408.703125 492.328125 C 2412.863281 493.371094 2416.996094 494.519531 2421.101562 495.765625 C 2425.207031 497.011719 2429.277344 498.359375 2433.316406 499.808594 C 2437.355469 501.253906 2441.355469 502.800781 2445.316406 504.445312 C 2449.28125 506.089844 2453.199219 507.828125 2457.078125 509.664062 Z M 2457.078125 509.664062 "/><g clip-rule="nonzero" clip-path="url(#e0bb836fac)"><path style="fill:none;stroke-width:1;stroke-linecap:butt;stroke-linejoin:miter;stroke:#ff6fbc;stroke-opacity:1;stroke-miterlimit:10;" d="M 812.990119 -19.360849 L 822.209246 -19.35972 C 823.948691 -19.360163 825.685809 -19.317444 827.423462 -19.23292 C 829.160363 -19.146287 830.89358 -19.019356 832.624471 -18.849264 C 834.354609 -18.677062 836.080386 -18.465994 837.799544 -18.20973 C 839.520132 -17.954145 841.232068 -17.657659 842.938137 -17.318087 C 844.643528 -16.979947 846.339513 -16.598796 848.026845 -16.176745 C 849.713424 -15.752585 851.388563 -15.289708 853.052188 -14.784575 C 854.717243 -14.28012 856.366565 -13.734914 858.003695 -13.148884 C 859.640825 -12.562853 861.262975 -11.938181 862.869392 -11.27276 C 864.47581 -10.607339 866.065817 -9.902599 867.637305 -9.159293 C 869.20947 -8.414557 870.761761 -7.634117 872.29621 -6.813681 C 873.829981 -5.994676 875.341693 -5.137182 876.833529 -4.243984 C 878.323935 -3.350108 879.793035 -2.419852 881.23872 -1.453969 C 882.684404 -0.488085 884.106674 0.513426 885.502741 1.54838 C 886.899487 2.584765 888.270031 3.654594 889.614372 4.757865 C 890.958714 5.861136 892.274067 6.995665 893.563218 8.163637 C 894.850938 9.332287 896.110423 10.530086 897.339487 11.759822 C 898.569983 12.988879 899.76795 14.24912 900.935572 15.537756 C 902.103946 16.824284 903.239793 18.141994 904.342507 19.485915 C 905.445222 20.829837 906.514804 22.19997 907.549824 23.596992 C 908.586275 24.993336 909.587485 26.415138 910.552777 27.860968 C 911.519499 29.306119 912.450303 30.775297 913.343832 32.265639 C 914.238039 33.757413 915.094971 35.270351 915.914628 36.804454 C 916.733607 38.337125 917.515312 39.890961 918.258385 41.463099 C 919.002889 43.034559 919.706654 44.623567 920.371109 46.229447 C 921.037674 47.836079 921.66282 49.458829 922.248733 51.09491 C 922.835323 52.732422 923.379139 54.383189 923.885152 56.046609 C 924.389734 57.710706 924.852973 59.387381 925.274944 61.073093 C 925.697593 62.760236 926.078973 64.456416 926.419084 66.161633 C 926.757765 67.867527 927.053821 69.579596 927.31004 71.300025 C 927.56415 73.0197 927.777066 74.744871 927.948788 76.47554 C 928.119079 78.206886 928.246143 79.939435 928.331334 81.67605 C 928.417204 83.414096 928.460598 85.151236 928.459334 86.890257 L 928.459597 557.050891 C 928.459763 558.789234 928.417454 560.526671 928.33267 562.263202 C 928.246455 564.000411 928.118518 565.734605 927.94818 567.464353 C 927.777842 569.194101 927.565103 570.919402 927.309964 572.640258 C 927.054147 574.359682 926.756682 576.072551 926.419 577.778186 C 926.079209 579.483069 925.698522 581.179286 925.27551 582.867518 C 924.853251 584.55364 924.389418 586.229667 923.884765 587.89349 C 923.380112 589.557312 922.833961 591.207498 922.24842 592.844803 C 921.662878 594.482107 921.038022 596.102988 920.371667 597.710234 C 919.706743 599.316801 919.001826 600.905515 918.259025 602.477128 C 917.514792 604.049419 916.733429 605.602501 915.914255 607.134942 C 915.094329 608.669491 914.237346 610.181291 913.343232 611.673882 C 912.44987 613.164363 911.520129 614.633525 910.553332 616.079938 C 909.587965 617.525673 908.586294 618.946549 907.550428 620.343319 C 906.514562 621.74009 905.445253 623.110645 904.342502 624.454986 C 903.239072 625.797896 902.103631 627.113914 900.936178 628.403039 C 899.768724 629.692164 898.569334 630.950856 897.340115 632.179869 C 896.110897 633.408882 894.85185 634.608215 893.563727 635.77576 C 892.274174 636.943983 890.958406 638.079062 889.613563 639.182352 C 888.270151 640.284965 886.899094 641.355111 885.503253 642.391435 C 884.106734 643.426328 882.685433 644.427399 881.238669 645.393217 C 879.794015 646.359788 878.324652 647.288997 876.833367 648.183028 C 875.342083 649.077059 873.829629 649.933803 872.296006 650.753261 C 870.763061 651.57415 869.2097 652.355643 867.638032 653.098494 C 866.064932 653.842022 864.477065 654.546984 862.870212 655.211872 C 861.264038 655.878191 859.641739 656.50308 858.004672 657.089403 C 856.366928 657.674295 854.715846 658.219941 853.052858 658.725665 C 851.389192 659.229958 849.712941 659.692897 848.026215 660.115236 C 846.340167 660.539005 844.643718 660.918634 842.938903 661.258416 C 841.231978 661.597444 839.519549 661.89527 837.800936 662.150461 C 836.080214 662.404899 834.353987 662.618135 832.625117 662.788811 C 830.894138 662.958735 829.160515 663.086099 827.422817 663.171583 C 825.687229 663.257821 823.948319 663.300068 822.210305 663.299833 L 812.989747 663.299382 C 811.250302 663.299825 809.513184 663.257106 807.776962 663.171905 C 806.039309 663.087381 804.305413 662.959018 802.575953 662.788248 C 800.845063 662.618156 799.120038 662.404978 797.399449 662.149392 C 795.679539 661.895238 793.966925 661.597321 792.261534 661.25918 C 790.555465 660.919609 788.85948 660.538458 787.173579 660.115729 C 785.486247 659.693678 783.81043 659.22937 782.146806 658.724237 C 780.483859 658.220535 778.832428 657.674576 777.195298 657.088546 C 775.558168 656.502515 773.936018 655.877843 772.329601 655.212422 C 770.723183 654.547001 769.133176 653.842261 767.561689 653.098955 C 765.990201 652.35565 764.437232 651.573779 762.903461 650.754774 C 761.370443 649.93366 759.857978 649.078275 758.366895 648.182968 C 756.875058 647.28977 755.405958 646.359514 753.960274 645.393631 C 752.514589 644.427747 751.094428 643.426989 749.696252 642.391282 C 748.299506 641.354897 746.928963 640.285068 745.585299 639.183229 C 744.242388 638.07928 742.924926 636.943997 741.637206 635.775347 C 740.348733 634.608806 739.088571 633.409576 737.859506 632.17984 C 736.630441 630.950105 735.431722 629.691973 734.2641 628.403337 C 733.096478 627.114701 731.96131 625.798422 730.857164 624.455178 C 729.753772 623.109825 728.684189 621.739692 727.649169 620.34267 C 726.612718 618.946326 725.612186 617.525955 724.646216 616.078694 C 723.679494 614.633543 722.750799 613.165118 721.856592 611.673345 C 720.962385 610.181571 720.105453 608.668633 719.286474 607.135962 C 718.465386 605.602537 717.68436 604.050132 716.941286 602.477995 C 716.198213 600.905857 715.492339 599.316095 714.827884 597.710215 C 714.161319 596.103583 713.536851 594.482264 712.950261 592.844752 C 712.365101 591.206562 711.819854 589.556473 711.315272 587.892375 C 710.81069 586.228278 710.346698 584.553712 709.924049 582.866569 C 709.501401 581.179426 709.120021 579.483246 708.782018 577.778783 C 708.441906 576.073566 708.145172 574.360066 707.889631 572.641069 C 707.634843 570.919962 707.421927 569.194791 707.252314 567.464876 C 707.080592 565.734207 706.952851 564.000227 706.867659 562.263612 C 706.782467 560.526997 706.740504 558.78918 706.739659 557.049405 L 706.740075 86.890202 C 706.739908 85.151859 706.78297 83.412313 706.868432 81.677213 C 706.953216 79.940682 707.081154 78.206488 707.250813 76.475309 C 707.422582 74.744883 707.635321 73.019582 707.889707 71.300836 C 708.144846 69.57998 708.442311 67.867111 708.782103 66.162229 C 709.121215 64.455916 709.501902 62.759698 709.924161 61.073575 C 710.34642 59.387453 710.810253 57.711426 711.314906 56.047604 C 711.819559 54.383781 712.365032 52.732164 712.950574 51.094859 C 713.536793 49.458987 714.162402 47.835996 714.827326 46.229428 C 715.492928 44.624292 716.197167 43.034147 716.9414 41.461856 C 717.684201 39.890243 718.465565 38.337161 719.286169 36.804042 C 720.104664 35.270171 720.961647 33.758371 721.85644 32.267212 C 722.750554 30.774621 723.680973 29.30689 724.646339 27.861155 C 725.611706 26.41542 726.612699 24.993113 727.648565 23.596343 C 728.685109 22.201004 729.754418 20.830448 730.85717 19.486107 C 731.959921 18.141766 733.096793 16.82507 734.264246 15.535945 C 735.430947 14.248929 736.630337 12.990237 737.858878 11.759793 C 739.089527 10.530102 740.348574 9.330769 741.636697 8.163224 C 742.92482 6.995679 744.240587 5.8606 745.58543 4.75731 C 746.930273 3.65402 748.2999 2.584551 749.696418 1.549658 C 751.09369 0.512656 752.514991 -0.488415 753.960324 -1.453555 C 755.407087 -2.419372 756.874341 -3.349335 758.367057 -4.244044 C 759.858341 -5.138075 761.370795 -5.994819 762.904418 -6.814277 C 764.438041 -7.633735 765.989971 -8.41455 767.562392 -9.15951 C 769.134061 -9.90236 770.724037 -10.606568 772.330212 -11.272887 C 773.935634 -11.937097 775.557254 -12.563418 777.194999 -13.14831 C 778.832066 -13.734633 780.483147 -14.280279 782.146813 -14.784572 C 783.81191 -15.289543 785.486052 -15.753235 787.172778 -16.175574 C 788.859504 -16.597912 790.555275 -16.978972 792.262199 -17.318001 C 793.967015 -17.657782 795.680123 -17.954177 797.400166 -18.210046 C 799.12021 -18.465915 800.845006 -18.678473 802.575985 -18.848396 C 804.306286 -19.01975 806.039909 -19.147115 807.776176 -19.231921 C 809.513873 -19.317405 811.250674 -19.360406 812.990119 -19.360849 Z M 812.990119 -19.360849 " transform="matrix(2.229699,1.05604,-1.056356,2.229033,623.9028,-305.730062)"/></g><path style=" stroke:none;fill-rule:nonzero;fill:#bc42b9;fill-opacity:1;" d="M 1114.890625 1803.011719 C 1114.101562 1979.960938 988.738281 2072.234375 856.8125 2072.902344 C 696.488281 2073.691406 574.0625 1980.949219 568.339844 1803.53125 C 562.617188 1626.113281 846.796875 1150.957031 846.796875 1150.957031 C 846.796875 1150.957031 1115.679688 1625.496094 1114.867188 1803.035156 Z M 1114.890625 1803.011719 "/><g clip-rule="nonzero" clip-path="url(#4414641a10)"><path style="fill:none;stroke-width:1;stroke-linecap:butt;stroke-linejoin:miter;stroke:#bc42b9;stroke-opacity:1;stroke-miterlimit:10;" d="M 415.54004 535.91991 C 415.220229 607.659821 364.409807 645.069923 310.939568 645.340735 C 245.959287 645.660642 196.33945 608.060497 194.020026 536.130542 C 191.700603 464.200586 306.88018 271.559626 306.88018 271.559626 C 306.88018 271.559626 415.859851 463.950362 415.530541 535.929412 Z M 415.54004 535.91991 " transform="matrix(2.467275,0,0,2.466538,89.639092,481.144893)"/></g><path style=" stroke:none;fill-rule:nonzero;fill:#6b66c4;fill-opacity:1;" d="M 2118.132812 1810.804688 C 2117.222656 1984.007812 1991.808594 2074.453125 1859.882812 2075.167969 C 1699.5625 2076.058594 1577.207031 1985.339844 1571.609375 1811.667969 C 1566.007812 1638 1854.679688 1168.839844 1854.679688 1168.839844 C 1854.679688 1168.839844 2119.046875 1636.988281 2118.132812 1810.804688 Z M 2118.132812 1810.804688 "/><g clip-rule="nonzero" clip-path="url(#7810197b49)"><path style="fill:none;stroke-width:1;stroke-linecap:butt;stroke-linejoin:miter;stroke:#6b66c4;stroke-opacity:1;stroke-miterlimit:10;" d="M 822.159572 539.079386 C 821.790681 609.300532 770.959677 645.969463 717.489438 646.25928 C 652.510741 646.620363 602.919402 609.840573 600.650641 539.429383 C 598.380297 469.019778 715.380583 278.809793 715.380583 278.809793 C 715.380583 278.809793 822.530047 468.6096 822.159572 539.079386 Z M 822.159572 539.079386 " transform="matrix(2.467275,0,0,2.466538,89.639092,481.144893)"/></g><path style=" stroke:none;fill-rule:nonzero;fill:#6b66c4;fill-opacity:1;" d="M 1068.925781 746.964844 C 1067.347656 576.304688 1191.449219 485.265625 1323.351562 482.5 C 1483.648438 479.148438 1620.3125 552.476562 1615.378906 737.640625 C 1610.789062 908.792969 1346.839844 1373.636719 1346.839844 1373.636719 C 1346.839844 1373.636719 1070.503906 918.214844 1068.925781 746.964844 Z M 1068.925781 746.964844 "/><g clip-rule="nonzero" clip-path="url(#7bd2f3dd31)"><path style="fill:none;stroke-width:1;stroke-linecap:butt;stroke-linejoin:miter;stroke:#6b66c4;stroke-opacity:1;stroke-miterlimit:10;" d="M 396.910238 107.770466 C 396.270615 38.580307 446.569656 1.670654 500.030395 0.549396 C 564.999593 -0.809416 620.390284 28.919753 618.390671 103.99018 C 616.530382 173.379885 509.550324 361.839884 509.550324 361.839884 C 509.550324 361.839884 397.549861 177.199763 396.910238 107.770466 Z M 396.910238 107.770466 " transform="matrix(2.467275,0,0,2.466538,89.639092,481.144893)"/></g></g></svg>